[h264 @ 0x5594ed864080] Reinit context to 480x848, pix_fmt: yuv420p
Input #0, mov,mp4,m4a,3gp,3g2,mj2, from '/var/www/html/project/media/video/original/WhatsApp_Video_2025-01-15_at_10.14.58.mp4':
  Metadata:
    major_brand     : mp42
    minor_version   : 0
    compatible_brands: mp42isom
  Duration: 00:00:08.54, start: 0.000000, bitrate: 1330 kb/s
    Stream #0:0(und): Video: h264 (Baseline), 1 reference frame (avc1 / 0x31637661), yuv420p(tv, bt709, left), 480x848, 1278 kb/s, 30 fps, 30 tbr, 600 tbn, 1200 tbc (default)
    Stream #0:1(und): Audio: aac (LC) (mp4a / 0x6134706D), 44100 Hz, stereo, fltp, 54 kb/s (default)
Input #1, png_pipe, from '/var/www/html/project/static/images/templates/logo.png':
  Duration: N/A, bitrate: N/A
    Stream #1:0: Video: png, 1 reference frame, rgba(pc), 1920x1080 [SAR 2835:2835 DAR 16:9], 25 tbr, 25 tbn, 25 tbc
[h264 @ 0x5594ed8b62c0] Reinit context to 1280x720, pix_fmt: yuv420p
Input #2, mov,mp4,m4a,3gp,3g2,mj2, from '/var/www/html/project/static/images/templates/Codino.mp4':
  Metadata:
    major_brand     : mp42
    minor_version   : 1
    compatible_brands: isommp41mp42
    creation_time   : 2021-07-11T07:02:58.000000Z
  Duration: 00:00:02.00, start: 0.000000, bitrate: 1007 kb/s
    Stream #2:0(ita): Audio: aac (LC) (mp4a / 0x6134706D), 44100 Hz, stereo, fltp, 102 kb/s (default)
    Metadata:
      creation_time   : 2021-07-11T07:02:58.000000Z
      handler_name    : Core Media Audio
    Stream #2:1(und): Video: h264 (High), 1 reference frame (avc1 / 0x31637661), yuv420p(tv, bt709, progressive, left), 1280x720 [SAR 1:1 DAR 16:9], 813 kb/s, 25 fps, 25 tbr, 25k tbn, 50k tbc (default)
    Metadata:
      creation_time   : 2021-07-11T07:02:58.000000Z
      handler_name    : Core Media Video
[Parsed_scale_0 @ 0x5594ed9cc700] w:1280 h:720 flags:'bilinear' interl:0
[Parsed_scale_2 @ 0x5594ed9d1500] w:1280 h:720 flags:'bilinear' interl:0
[Parsed_scale_4 @ 0x5594ed9ce900] w:1280 h:720 flags:'bilinear' interl:0
Stream mapping:
  Stream #0:0 (h264) -> scale
  Stream #0:1 (aac) -> concat:in0:a0
  Stream #1:0 (png) -> scale
  Stream #2:0 (aac) -> concat:in1:a0
  Stream #2:1 (h264) -> scale
  concat:out:v0 -> Stream #0:0 (libx264)
  concat:out:a0 -> Stream #0:1 (aac)
Press [q] to stop, [?] for help
[h264 @ 0x5594ed963040] Reinit context to 480x848, pix_fmt: yuv420p
[h264 @ 0x5594edd09bc0] Reinit context to 1280x720, pix_fmt: yuv420p
[Parsed_scale_0 @ 0x5594ee837dc0] w:1280 h:720 flags:'bilinear' interl:0
[Parsed_scale_2 @ 0x5594ee838480] w:1280 h:720 flags:'bilinear' interl:0
[Parsed_scale_4 @ 0x5594ee841600] w:1280 h:720 flags:'bilinear' interl:0
[graph 0 input from stream 0:0 @ 0x5594ee845d40] w:480 h:848 pixfmt:yuv420p tb:1/600 fr:30/1 sar:0/1 sws_param:flags=2
[graph 0 input from stream 1:0 @ 0x5594ee846dc0] w:1920 h:1080 pixfmt:rgba tb:1/25 fr:25/1 sar:2835/2835 sws_param:flags=2
[graph 0 input from stream 2:1 @ 0x5594ee847e40] w:1280 h:720 pixfmt:yuv420p tb:1/25000 fr:25/1 sar:1/1 sws_param:flags=2
[graph_0_in_0_1 @ 0x5594ee848e00] tb:1/44100 samplefmt:fltp samplerate:44100 chlayout:0x3
[graph_0_in_2_0 @ 0x5594ee849f40] tb:1/44100 samplefmt:fltp samplerate:44100 chlayout:0x3
[Parsed_scale_0 @ 0x5594ee837dc0] w:480 h:848 fmt:yuv420p sar:0/1 -> w:1280 h:720 fmt:yuv420p sar:0/1 flags:0x2
[Parsed_setsar_1 @ 0x5594ee838000] w:1280 h:720 sar:0/1 dar:16/9 -> sar:1/1 dar:16/9
[Parsed_scale_2 @ 0x5594ee838480] w:1920 h:1080 fmt:rgba sar:2835/2835 -> w:1280 h:720 fmt:yuva420p sar:1/1 flags:0x2
[Parsed_setsar_3 @ 0x5594ed9d3a40] w:1280 h:720 sar:1/1 dar:16/9 -> sar:1/1 dar:16/9
[Parsed_overlay_6 @ 0x5594ee842c80] main w:1280 h:720 fmt:yuv420p overlay w:1280 h:720 fmt:yuva420p
[Parsed_overlay_6 @ 0x5594ee842c80] [framesync @ 0x5594ee842da8] Selected 1/600 time base
[Parsed_overlay_6 @ 0x5594ee842c80] [framesync @ 0x5594ee842da8] Sync level 2
[Parsed_scale_4 @ 0x5594ee841600] w:1280 h:720 fmt:yuv420p sar:1/1 -> w:1280 h:720 fmt:yuv420p sar:1/1 flags:0x2
[Parsed_setsar_5 @ 0x5594ee8420c0] w:1280 h:720 sar:1/1 dar:16/9 -> sar:1/1 dar:16/9
[libx264 @ 0x5594ed8c9740] using SAR=1/1
[libx264 @ 0x5594ed8c9740] using cpu capabilities: MMX2 SSE2Fast SSSE3 SSE4.2 AVX FMA3 BMI2 AVX2
[libx264 @ 0x5594ed8c9740] profile High, level 3.1
[libx264 @ 0x5594ed8c9740] 264 - core 155 r2917 0a84d98 - H.264/MPEG-4 AVC codec - Copyleft 2003-2018 - http://www.videolan.org/x264.html - options: cabac=1 ref=1 deblock=1:0:0 analyse=0x3:0x113 me=hex subme=2 psy=1 psy_rd=1.00:0.00 mixed_ref=0 me_range=16 chroma_me=1 trellis=0 8x8dct=1 cqm=0 deadzone=21,11 fast_pskip=1 chroma_qp_offset=0 threads=22 lookahead_threads=5 sliced_threads=0 nr=0 decimate=1 interlaced=0 bluray_compat=0 constrained_intra=0 bframes=3 b_pyramid=2 b_adapt=1 b_bias=0 direct=1 weightb=1 open_gop=0 weightp=1 keyint=250 keyint_min=25 scenecut=40 intra_refresh=0 rc_lookahead=10 rc=crf mbtree=1 crf=18.0 qcomp=0.60 qpmin=0 qpmax=69 qpstep=4 ip_ratio=1.40 aq=1:1.00
Output #0, mp4, to '/var/www/html/project/media/video/watermarks/WhatsApp_Video_2025-01-15_at_10.14.58.mp4':
  Metadata:
    major_brand     : mp42
    minor_version   : 0
    compatible_brands: mp42isom
    encoder         : Lavf58.29.100
    Stream #0:0: Video: h264 (libx264), 1 reference frame (avc1 / 0x31637661), yuv420p(progressive), 1280x720 [SAR 1:1 DAR 16:9], q=-1--1, 30 fps, 15360 tbn, 30 tbc (default)
    Metadata:
      encoder         : Lavc58.54.100 libx264
    Side data:
      cpb: bitrate max/min/avg: 0/0/0 buffer size: 0 vbv_delay: -1
    Stream #0:1: Audio: aac (LC) (mp4a / 0x6134706D), 44100 Hz, stereo, fltp, delay 1024, 128 kb/s (default)
    Metadata:
      encoder         : Lavc58.54.100 aac
[Parsed_overlay_6 @ 0x5594ee842c80] [framesync @ 0x5594ee842da8] Sync level 0
[Parsed_concat_7 @ 0x5594ee843dc0] EOF on in0:v0, 1 streams left in segment.
[Parsed_concat_7 @ 0x5594ee843dc0] EOF on in0:a0, 0 streams left in segment.
[Parsed_concat_7 @ 0x5594ee843dc0] Segment finished at pts=8544943
[Parsed_concat_7 @ 0x5594ee843dc0] EOF on in1:a0, 1 streams left in segment.
[Parsed_concat_7 @ 0x5594ee843dc0] EOF on in1:v0, 0 streams left in segment.
[Parsed_concat_7 @ 0x5594ee843dc0] Segment finished at pts=10563628
No more output streams to write to, finishing.
frame=  305 fps= 82 q=-1.0 Lsize=    3906kB time=00:00:10.56 bitrate=3028.4kbits/s speed=2.85x    
[AVIOContext @ 0x5594ed862440] Statistics: 0 seeks, 8 writeouts
video:3734kB audio:160kB subtitle:0kB other streams:0kB global headers:0kB muxing overhead: 0.313752%
Input file #0 (/var/www/html/project/media/video/original/WhatsApp_Video_2025-01-15_at_10.14.58.mp4):
  Input stream #0:0 (video): 255 packets read (1358340 bytes); 255 frames decoded; 
  Input stream #0:1 (audio): 368 packets read (58566 bytes); 368 frames decoded (376832 samples); 
  Total: 623 packets (1416906 bytes) demuxed
Input file #1 (/var/www/html/project/static/images/templates/logo.png):
  Input stream #1:0 (video): 1 packets read (111578 bytes); 1 frames decoded; 
  Total: 1 packets (111578 bytes) demuxed
Input file #2 (/var/www/html/project/static/images/templates/Codino.mp4):
  Input stream #2:0 (audio): 89 packets read (26579 bytes); 87 frames decoded (89024 samples); 
  Input stream #2:1 (video): 50 packets read (203365 bytes); 50 frames decoded; 
  Total: 139 packets (229944 bytes) demuxed
Output file #0 (/var/www/html/project/media/video/watermarks/WhatsApp_Video_2025-01-15_at_10.14.58.mp4):
  Output stream #0:0 (video): 305 frames encoded; 305 packets muxed (3823256 bytes); 
  Output stream #0:1 (audio): 455 frames encoded (465856 samples); 456 packets muxed (163649 bytes); 
  Total: 761 packets (3986905 bytes) muxed
[AVIOContext @ 0x5594ed88c580] Statistics: 2 seeks, 19 writeouts
[libx264 @ 0x5594ed8c9740] frame I:2     Avg QP:18.03  size: 98690
[libx264 @ 0x5594ed8c9740] frame P:108   Avg QP:17.53  size: 23907
[libx264 @ 0x5594ed8c9740] frame B:195   Avg QP:21.53  size:  5350
[libx264 @ 0x5594ed8c9740] consecutive B-frames:  6.2% 23.6%  5.9% 64.3%
[libx264 @ 0x5594ed8c9740] mb I  I16..4:  2.0% 24.7% 73.3%
[libx264 @ 0x5594ed8c9740] mb P  I16..4:  2.4% 12.2%  2.3%  P16..4: 30.7% 15.9%  8.2%  0.0%  0.0%    skip:28.1%
[libx264 @ 0x5594ed8c9740] mb B  I16..4:  0.4%  1.3%  0.0%  B16..8: 19.9%  7.4%  0.7%  direct:10.7%  skip:59.6%  L0:42.9% L1:39.1% BI:18.0%
[libx264 @ 0x5594ed8c9740] 8x8 transform intra:68.7% inter:44.9%
[libx264 @ 0x5594ed8c9740] coded y,uvDC,uvAC intra: 72.1% 66.7% 27.4% inter: 15.3% 13.2% 0.8%
[libx264 @ 0x5594ed8c9740] i16 v,h,dc,p: 38% 34%  6% 21%
[libx264 @ 0x5594ed8c9740] i8 v,h,dc,ddl,ddr,vr,hd,vl,hu:  7% 62%  8%  3%  2%  1%  7%  2%  7%
[libx264 @ 0x5594ed8c9740] i4 v,h,dc,ddl,ddr,vr,hd,vl,hu:  9% 52%  9%  3%  4%  3%  9%  2%  8%
[libx264 @ 0x5594ed8c9740] i8c dc,h,v,p: 37% 47%  6% 10%
[libx264 @ 0x5594ed8c9740] Weighted P-Frames: Y:9.3% UV:0.0%
[libx264 @ 0x5594ed8c9740] kb/s:2903.22
[aac @ 0x5594ed8a2040] Qavg: 4878.222
[AVIOContext @ 0x5594ed86b3c0] Statistics: 1420813 bytes read, 0 seeks
[AVIOContext @ 0x5594edabce00] Statistics: 111578 bytes read, 0 seeks
[AVIOContext @ 0x5594ed869840] Statistics: 1530915 bytes read, 42 seeks
